<svg width="28" height="28" viewBox="0 0 28 28" fill="none" xmlns="http://www.w3.org/2000/svg">
<path d="M20.3 1.40002H7.70002C4.22063 1.40002 1.40002 4.22063 1.40002 7.70002V20.3C1.40002 23.7794 4.22063 26.6 7.70002 26.6H20.3C23.7794 26.6 26.6 23.7794 26.6 20.3V7.70002C26.6 4.22063 23.7794 1.40002 20.3 1.40002Z" stroke="#4F3D36" stroke-width="2.52" stroke-linecap="round" stroke-linejoin="round"/>
<path d="M19.04 13.2062C19.1955 14.2549 19.0164 15.3258 18.5282 16.2668C18.0399 17.2078 17.2674 17.9708 16.3205 18.4474C15.3736 18.924 14.3005 19.0899 13.2538 18.9215C12.2072 18.7531 11.2403 18.2589 10.4907 17.5093C9.74111 16.7597 9.24696 15.7929 9.07854 14.7462C8.91012 13.6996 9.07602 12.6265 9.55263 11.6796C10.0292 10.7327 10.7923 9.96015 11.7333 9.4719C12.6742 8.98365 13.7452 8.80454 14.7938 8.96004C15.8635 9.11865 16.8537 9.61708 17.6184 10.3817C18.383 11.1463 18.8814 12.1366 19.04 13.2062Z" stroke="#4F3D36" stroke-width="2.52" stroke-linecap="round" stroke-linejoin="round"/>
<path d="M20.9301 7.07001H20.9427" stroke="#4F3D36" stroke-width="2.52" stroke-linecap="round" stroke-linejoin="round"/>
</svg>
