<svg width="26" height="26" viewBox="0 0 26 26" fill="none" xmlns="http://www.w3.org/2000/svg">
<path d="M24.3157 14.0193C24.1175 16.1641 23.3126 18.208 21.9951 19.9121C20.6776 21.6161 18.9021 22.9096 16.8763 23.6413C14.8505 24.3731 12.6582 24.5127 10.5559 24.044C8.45361 23.5752 6.5283 22.5174 5.00525 20.9944C3.4822 19.4713 2.42441 17.546 1.95565 15.4437C1.48689 13.3414 1.62655 11.1491 2.35828 9.12331C3.09002 7.0975 4.38357 5.32198 6.08757 4.00451C7.79157 2.68704 9.83555 1.8821 11.9803 1.6839C10.7246 3.38272 10.1204 5.47581 10.2775 7.58248C10.4346 9.68916 11.3426 11.6695 12.8364 13.1633C14.3302 14.657 16.3105 15.565 18.4171 15.7221C20.5238 15.8792 22.6169 15.275 24.3157 14.0193Z" stroke="#4F3D36" stroke-width="2.52" stroke-linecap="round" stroke-linejoin="round"/>
</svg>
