<svg width="28" height="28" viewBox="0 0 28 28" fill="none" xmlns="http://www.w3.org/2000/svg">
<path d="M19.04 9.59003C21.0451 9.59003 22.968 10.3865 24.3858 11.8043C25.8035 13.2221 26.6 15.145 26.6 17.15V25.97H21.56V17.15C21.56 16.4817 21.2945 15.8407 20.822 15.3681C20.3494 14.8955 19.7084 14.63 19.04 14.63C18.3717 14.63 17.7307 14.8955 17.2581 15.3681C16.7855 15.8407 16.52 16.4817 16.52 17.15V25.97H11.48V17.15C11.48 15.145 12.2765 13.2221 13.6943 11.8043C15.1121 10.3865 17.035 9.59003 19.04 9.59003Z" stroke="#4F3D36" stroke-width="2.52" stroke-linecap="round" stroke-linejoin="round"/>
<path d="M6.44002 10.85H1.40002V25.97H6.44002V10.85Z" stroke="#4F3D36" stroke-width="2.52" stroke-linecap="round" stroke-linejoin="round"/>
<path d="M3.92002 7.07003C5.31178 7.07003 6.44002 5.94179 6.44002 4.55003C6.44002 3.15827 5.31178 2.03003 3.92002 2.03003C2.52827 2.03003 1.40002 3.15827 1.40002 4.55003C1.40002 5.94179 2.52827 7.07003 3.92002 7.07003Z" stroke="#4F3D36" stroke-width="2.52" stroke-linecap="round" stroke-linejoin="round"/>
</svg>
