<svg width="376" height="153" viewBox="0 0 376 153" fill="none" xmlns="http://www.w3.org/2000/svg">
<circle cx="99" cy="54" r="44.5" stroke="#F4BCA4" stroke-width="7"/>
<line x1="100.5" y1="54" x2="100.5" y2="147" stroke="#4F3D36" stroke-width="5"/>
<path d="M144.094 113.414C145.995 113.193 147.069 113.036 147.316 112.945C147.486 112.88 147.642 112.685 147.785 112.359V112.145C147.785 111.819 147.837 110.641 147.941 108.609C147.967 108.036 147.98 107.477 147.98 106.93L147.922 104.605L147.961 101.969L147.941 97.0664L147.961 93.5508C147.974 92.0664 147.857 91.1615 147.609 90.8359C147.375 90.5104 146.757 90.2826 145.754 90.1523C144.751 90.0091 144.198 89.9049 144.094 89.8398C143.99 89.7747 143.938 89.6706 143.938 89.5273C143.938 89.4362 143.957 89.319 143.996 89.1758C144.126 89.0586 144.426 88.9935 144.895 88.9805C144.96 88.9805 145.135 88.9674 145.422 88.9414C145.721 88.9023 146.001 88.8828 146.262 88.8828H147.863L153 88.8242C155.904 88.8242 157.935 89.0391 159.094 89.4688C160.266 89.8984 161.197 90.6276 161.887 91.6562C162.577 92.6719 162.922 93.8112 162.922 95.0742C162.922 97.4701 161.665 99.2995 159.152 100.562C158.723 100.784 158.384 100.979 158.137 101.148C158.579 102.086 159.198 103.212 159.992 104.527L162.473 108.785C163.462 110.348 164.146 111.331 164.523 111.734C164.901 112.125 165.357 112.451 165.891 112.711C166.438 112.971 167.349 113.219 168.625 113.453C168.638 113.583 168.645 113.688 168.645 113.766C168.645 113.844 168.638 113.941 168.625 114.059C166.841 114.085 164.751 114.098 162.355 114.098C162.186 114.098 161.952 114.085 161.652 114.059C160.728 112.288 159.641 110.341 158.391 108.219L155.5 102.945C155.109 102.398 154.784 102.06 154.523 101.93C154.276 101.786 153.944 101.715 153.527 101.715L151.867 101.734L151.32 101.715C151.281 102.132 151.262 102.984 151.262 104.273V110.953C151.249 111.201 151.301 111.546 151.418 111.988C151.522 112.236 151.698 112.438 151.945 112.594C152.206 112.737 152.941 112.958 154.152 113.258L154.953 113.453C155.057 113.583 155.109 113.759 155.109 113.98C154.758 114.046 154.51 114.078 154.367 114.078C153.195 114.078 152.368 114.065 151.887 114.039C151.639 114.026 151.438 114.02 151.281 114.02L148.625 114.059L146.027 114.039C145.91 114.039 145.318 114.059 144.25 114.098L143.859 114.02L143.82 113.824C143.82 113.707 143.911 113.57 144.094 113.414ZM151.359 100.641C151.711 100.654 151.971 100.66 152.141 100.66C153.078 100.66 154.159 100.549 155.383 100.328C156.242 100.159 156.939 99.8854 157.473 99.5078C158.007 99.1172 158.449 98.5443 158.801 97.7891C159.165 97.0339 159.348 96.2526 159.348 95.4453C159.348 94.5599 159.068 93.6224 158.508 92.6328C158.078 91.8776 157.349 91.2461 156.32 90.7383C155.305 90.2305 154.081 89.9766 152.648 89.9766C152.297 89.9766 151.841 89.9961 151.281 90.0352C151.229 90.7122 151.203 91.2331 151.203 91.5977L151.301 95.25L151.281 96.7539C151.281 97.7695 151.307 99.0651 151.359 100.641ZM178.625 88.9219C178.69 89.1432 178.723 89.3125 178.723 89.4297C178.723 89.5078 178.703 89.625 178.664 89.7812C178.326 89.8724 178.052 89.918 177.844 89.918C177.753 89.918 177.596 89.9115 177.375 89.8984C177.167 89.8724 176.997 89.8594 176.867 89.8594C176.268 89.8594 175.793 89.9766 175.441 90.2109C175.207 90.3542 175.064 90.543 175.012 90.7773L174.816 93.0039L174.875 102.672C174.888 106.214 175.005 108.421 175.227 109.293C175.448 110.152 175.819 110.862 176.34 111.422C176.861 111.982 177.642 112.444 178.684 112.809C179.738 113.173 180.76 113.355 181.75 113.355C183.964 113.355 185.656 113.036 186.828 112.398C188.013 111.76 188.859 110.882 189.367 109.762C189.888 108.629 190.148 106.917 190.148 104.625C190.148 104.56 190.129 104.039 190.09 103.062V102.496C190.09 102.288 190.103 101.884 190.129 101.285C190.155 100.673 190.168 100.315 190.168 100.211L189.875 94.6055C189.784 92.7174 189.673 91.6042 189.543 91.2656C189.426 90.9271 189.25 90.6732 189.016 90.5039C188.508 90.1393 187.544 89.8138 186.125 89.5273C186.06 89.3451 186.021 89.1562 186.008 88.9609C186.516 88.9089 187.017 88.8828 187.512 88.8828C188.033 88.8828 188.579 88.9023 189.152 88.9414C190.012 89.0065 190.48 89.0391 190.559 89.0391L193.645 88.9414L194.25 88.9609L194.23 89.6641C192.629 89.8724 191.672 90.1198 191.359 90.4062C191.047 90.6797 190.891 91.194 190.891 91.9492C190.891 92.3529 190.917 93.2318 190.969 94.5859L191.105 98.6289L191.086 100.23L191.145 102.262C191.145 104.814 191.073 106.552 190.93 107.477C190.721 108.766 190.422 109.788 190.031 110.543C189.654 111.298 189.1 111.982 188.371 112.594C187.642 113.193 186.665 113.688 185.441 114.078C184.23 114.469 183.033 114.664 181.848 114.664C179.986 114.664 178.645 114.534 177.824 114.273C176.327 113.818 175.135 113.225 174.25 112.496C173.365 111.767 172.753 111.038 172.414 110.309C171.958 109.345 171.73 107.939 171.73 106.09V104.742L171.672 99.2734L171.73 94.8594V91.8906C171.73 91.1354 171.626 90.6081 171.418 90.3086C171.275 90.1003 171.066 89.9961 170.793 89.9961L169.641 90.0156C168.781 90.0156 168.234 89.9245 168 89.7422C167.961 89.625 167.941 89.5208 167.941 89.4297C167.941 89.3125 167.98 89.2214 168.059 89.1562C168.202 89.0521 168.378 89 168.586 89H169.094L170.402 88.9805H173.488L178.625 88.9219ZM221.652 90.2891L221.867 93.2578C221.945 94.1562 221.984 94.7682 221.984 95.0938L221.438 95.1914C220.565 93.2122 219.478 91.7279 218.176 90.7383C216.887 89.7487 215.305 89.2539 213.43 89.2539C211.138 89.2539 209.354 89.5339 208.078 90.0938C206.229 90.888 204.647 92.2682 203.332 94.2344C202.017 96.2005 201.359 98.5703 201.359 101.344C201.359 102.945 201.6 104.384 202.082 105.66C202.564 106.936 203.241 108.128 204.113 109.234C204.999 110.328 206.04 111.279 207.238 112.086C208.02 112.62 208.951 113.023 210.031 113.297C210.643 113.44 211.555 113.512 212.766 113.512C213.547 113.512 214.413 113.401 215.363 113.18C216.314 112.958 217.03 112.665 217.512 112.301C217.993 111.923 218.319 111.5 218.488 111.031C218.671 110.562 218.762 109.651 218.762 108.297C218.762 106.044 218.612 104.736 218.312 104.371C218.013 103.993 217.069 103.746 215.48 103.629L214.699 103.57L214.172 103.59C214.094 103.577 213.99 103.557 213.859 103.531L213.566 103.043C213.566 102.978 213.612 102.893 213.703 102.789C214.38 102.685 215.852 102.633 218.117 102.633C218.625 102.633 219.452 102.646 220.598 102.672L222.609 102.75L224.426 102.73C224.777 102.73 225.201 102.743 225.695 102.77C225.786 102.783 225.845 102.809 225.871 102.848C225.897 102.874 225.91 102.926 225.91 103.004C225.91 103.147 225.878 103.329 225.812 103.551C225.266 103.668 224.842 103.727 224.543 103.727L223.273 103.707C222.844 103.707 222.499 103.857 222.238 104.156C222.108 104.299 222.043 104.788 222.043 105.621L222.062 108.18C222.062 109.938 221.991 111.057 221.848 111.539C221.77 111.826 221.607 112.086 221.359 112.32C221.112 112.542 220.591 112.809 219.797 113.121C218.664 113.577 217.635 113.883 216.711 114.039C214.992 114.339 213.332 114.488 211.73 114.488C209.152 114.488 207.036 114.163 205.383 113.512C203.742 112.848 202.323 111.93 201.125 110.758C199.94 109.586 199.094 108.401 198.586 107.203C197.818 105.445 197.434 103.655 197.434 101.832C197.434 99.5534 198.033 97.3268 199.23 95.1523C200.441 92.9648 202.388 91.1875 205.07 89.8203C206.958 88.8568 209.523 88.375 212.766 88.375C215.005 88.375 216.835 88.5703 218.254 88.9609C219.686 89.3516 220.819 89.7943 221.652 90.2891ZM227.414 113.688C227.544 113.57 227.655 113.499 227.746 113.473C227.967 113.408 228.345 113.355 228.879 113.316C230.142 113.238 230.923 113.121 231.223 112.965C231.405 112.704 231.496 112.34 231.496 111.871L231.477 110.504L231.496 105.543L231.457 103.199L231.477 98.2969L231.379 92.7305C231.366 91.4023 231.281 90.6536 231.125 90.4844C230.891 90.237 230.194 90.0938 229.035 90.0547C228.54 90.0417 228.104 90.0026 227.727 89.9375C227.557 89.8464 227.473 89.7292 227.473 89.5859C227.473 89.4818 227.505 89.3581 227.57 89.2148C227.688 89.1497 227.792 89.1172 227.883 89.1172C228.065 89.1172 228.286 89.1237 228.547 89.1367C229.315 89.2018 230.109 89.2344 230.93 89.2344L232.375 89.1953L235.812 89.2734C237.531 89.2734 238.872 89.2539 239.836 89.2148C240.799 89.1758 241.451 89.1562 241.789 89.1562C242.089 89.1562 242.831 89.1823 244.016 89.2344L246.789 89.2148L247.121 89.2734L248.742 89.2148L248.938 89.3125C249.003 89.4167 249.048 89.5273 249.074 89.6445C249.074 89.8268 249.042 90.1068 248.977 90.4844C248.924 90.862 248.898 91.0964 248.898 91.1875C248.898 92.5417 248.944 93.6875 249.035 94.625C249.022 94.7031 248.983 94.7552 248.918 94.7812C248.775 94.7812 248.645 94.7617 248.527 94.7227C248.384 94.4753 248.189 94.0391 247.941 93.4141C247.707 92.7891 247.349 92.0664 246.867 91.2461C246.542 90.6992 246.288 90.3737 246.105 90.2695C245.923 90.1654 245.546 90.1133 244.973 90.1133C244.855 90.1133 244.263 90.1003 243.195 90.0742C242.909 90.0612 242.629 90.0547 242.355 90.0547L236.789 90.1719H236.301C235.585 90.1719 235.155 90.263 235.012 90.4453C234.79 90.7578 234.68 91.6758 234.68 93.1992C234.68 93.3555 234.712 94.918 234.777 97.8867V100.602C234.921 100.641 235.077 100.66 235.246 100.66H235.578C235.799 100.66 236.125 100.667 236.555 100.68C237.232 100.706 237.688 100.719 237.922 100.719C238.078 100.719 238.215 100.712 238.332 100.699C239.738 100.647 241.548 100.621 243.762 100.621C244.452 100.504 244.855 100.367 244.973 100.211C245.168 99.9766 245.311 99.3646 245.402 98.375C245.507 97.3854 245.728 96.8255 246.066 96.6953C246.236 96.6953 246.392 96.7279 246.535 96.793C246.561 96.8971 246.574 96.9948 246.574 97.0859C246.574 97.1771 246.561 97.3268 246.535 97.5352C246.47 98.0169 246.438 99.5273 246.438 102.066C246.438 102.743 246.47 103.499 246.535 104.332C246.613 105.165 246.652 105.615 246.652 105.68C246.652 105.797 246.633 105.953 246.594 106.148C246.49 106.201 246.405 106.227 246.34 106.227H246.203C245.995 105.862 245.793 105.296 245.598 104.527C245.259 103.212 244.901 102.392 244.523 102.066C244.159 101.728 243.56 101.559 242.727 101.559C242.544 101.559 242.212 101.572 241.73 101.598C241.249 101.611 240.533 101.617 239.582 101.617H238.312C236.503 101.617 235.318 101.656 234.758 101.734L234.738 102.379L234.758 105.973L234.738 108.238L234.758 110.445C234.771 111.773 234.855 112.542 235.012 112.75C235.233 113.036 235.715 113.18 236.457 113.18L237.648 113.16C237.753 113.16 238.156 113.173 238.859 113.199C239.576 113.212 240.454 113.219 241.496 113.219C244.009 113.219 245.682 113.115 246.516 112.906C247.349 112.685 248.033 112.301 248.566 111.754C249.113 111.207 249.797 110.029 250.617 108.219C250.865 107.685 251.112 107.418 251.359 107.418C251.477 107.418 251.607 107.47 251.75 107.574C251.372 108.863 251.158 109.71 251.105 110.113C250.962 111.025 250.878 111.956 250.852 112.906C250.852 113.336 250.747 113.694 250.539 113.98H250.109L244.621 114.039L242.16 114.02L236.301 114.098H233.918C233.618 114.098 233.339 114.104 233.078 114.117C230.734 114.221 229.009 114.273 227.902 114.273C227.707 114.273 227.57 114.241 227.492 114.176C227.427 114.111 227.395 114.013 227.395 113.883L227.414 113.688ZM253.781 113.414C255.682 113.193 256.757 113.036 257.004 112.945C257.173 112.88 257.329 112.685 257.473 112.359V112.145C257.473 111.819 257.525 110.641 257.629 108.609C257.655 108.036 257.668 107.477 257.668 106.93L257.609 104.605L257.648 101.969L257.629 97.0664L257.648 93.5508C257.661 92.0664 257.544 91.1615 257.297 90.8359C257.062 90.5104 256.444 90.2826 255.441 90.1523C254.439 90.0091 253.885 89.9049 253.781 89.8398C253.677 89.7747 253.625 89.6706 253.625 89.5273C253.625 89.4362 253.645 89.319 253.684 89.1758C253.814 89.0586 254.113 88.9935 254.582 88.9805C254.647 88.9805 254.823 88.9674 255.109 88.9414C255.409 88.9023 255.689 88.8828 255.949 88.8828H257.551L262.688 88.8242C265.591 88.8242 267.622 89.0391 268.781 89.4688C269.953 89.8984 270.884 90.6276 271.574 91.6562C272.264 92.6719 272.609 93.8112 272.609 95.0742C272.609 97.4701 271.353 99.2995 268.84 100.562C268.41 100.784 268.072 100.979 267.824 101.148C268.267 102.086 268.885 103.212 269.68 104.527L272.16 108.785C273.15 110.348 273.833 111.331 274.211 111.734C274.589 112.125 275.044 112.451 275.578 112.711C276.125 112.971 277.036 113.219 278.312 113.453C278.326 113.583 278.332 113.688 278.332 113.766C278.332 113.844 278.326 113.941 278.312 114.059C276.529 114.085 274.439 114.098 272.043 114.098C271.874 114.098 271.639 114.085 271.34 114.059C270.415 112.288 269.328 110.341 268.078 108.219L265.188 102.945C264.797 102.398 264.471 102.06 264.211 101.93C263.964 101.786 263.632 101.715 263.215 101.715L261.555 101.734L261.008 101.715C260.969 102.132 260.949 102.984 260.949 104.273V110.953C260.936 111.201 260.988 111.546 261.105 111.988C261.21 112.236 261.385 112.438 261.633 112.594C261.893 112.737 262.629 112.958 263.84 113.258L264.641 113.453C264.745 113.583 264.797 113.759 264.797 113.98C264.445 114.046 264.198 114.078 264.055 114.078C262.883 114.078 262.056 114.065 261.574 114.039C261.327 114.026 261.125 114.02 260.969 114.02L258.312 114.059L255.715 114.039C255.598 114.039 255.005 114.059 253.938 114.098L253.547 114.02L253.508 113.824C253.508 113.707 253.599 113.57 253.781 113.414ZM261.047 100.641C261.398 100.654 261.659 100.66 261.828 100.66C262.766 100.66 263.846 100.549 265.07 100.328C265.93 100.159 266.626 99.8854 267.16 99.5078C267.694 99.1172 268.137 98.5443 268.488 97.7891C268.853 97.0339 269.035 96.2526 269.035 95.4453C269.035 94.5599 268.755 93.6224 268.195 92.6328C267.766 91.8776 267.036 91.2461 266.008 90.7383C264.992 90.2305 263.768 89.9766 262.336 89.9766C261.984 89.9766 261.529 89.9961 260.969 90.0352C260.917 90.7122 260.891 91.2331 260.891 91.5977L260.988 95.25L260.969 96.7539C260.969 97.7695 260.995 99.0651 261.047 100.641ZM278.527 113.375C278.814 113.258 279.107 113.186 279.406 113.16C281.398 113.03 282.538 112.796 282.824 112.457C283.111 112.105 283.254 110.432 283.254 107.438L283.234 105.387V103.238L283.156 100.875L283.195 99.4883L283.176 97.9648V96.168L283.137 95.3672L283.176 94.3516C283.189 94.1172 283.195 93.8438 283.195 93.5312C283.195 92.7109 283.156 91.8451 283.078 90.9336C283.026 90.7513 282.954 90.5755 282.863 90.4062C282.382 90.1589 281.6 89.9961 280.52 89.918C279.452 89.8268 278.846 89.7292 278.703 89.625C278.599 89.5469 278.54 89.3451 278.527 89.0195H280.168L285.344 89.1367C286.672 89.1367 288.443 89.0977 290.656 89.0195C290.656 89.2279 290.643 89.4232 290.617 89.6055C290.357 89.6706 289.921 89.7422 289.309 89.8203C288.072 89.9635 287.316 90.1003 287.043 90.2305C286.874 90.2956 286.75 90.4062 286.672 90.5625C286.542 90.7969 286.464 91.2331 286.438 91.8711L286.34 94.3906L286.418 103.082V106.52C286.392 107.6 286.379 108.336 286.379 108.727C286.379 110.185 286.411 111.116 286.477 111.52C286.555 111.923 286.678 112.216 286.848 112.398C287.03 112.568 287.323 112.704 287.727 112.809C288.326 112.952 288.794 113.03 289.133 113.043C289.862 113.069 290.324 113.173 290.52 113.355C290.559 113.525 290.578 113.668 290.578 113.785V113.941C289.393 113.98 288.521 114 287.961 114C287.635 114 287.056 113.98 286.223 113.941L283.527 113.98L278.938 113.961H278.566L278.527 113.375ZM293.703 101.52C293.703 100.191 293.859 99.013 294.172 97.9844C294.497 96.9427 295.038 95.8164 295.793 94.6055C296.548 93.3945 297.46 92.3854 298.527 91.5781C299.595 90.7578 301.073 90.0352 302.961 89.4102C304.289 88.9805 305.969 88.7656 308 88.7656C309.367 88.7656 310.702 88.9479 312.004 89.3125C313.319 89.6771 314.51 90.1849 315.578 90.8359C316.646 91.487 317.714 92.4896 318.781 93.8438C319.523 94.7812 320.083 95.7904 320.461 96.8711C320.956 98.2904 321.203 99.7552 321.203 101.266C321.203 102.984 321.034 104.41 320.695 105.543C320.37 106.676 319.816 107.796 319.035 108.902C318.423 109.762 317.375 110.751 315.891 111.871C314.901 112.626 313.671 113.238 312.199 113.707C310.728 114.163 309.139 114.391 307.434 114.391C305.702 114.391 304.159 114.189 302.805 113.785C301.451 113.382 300.318 112.893 299.406 112.32C298.508 111.734 297.577 110.875 296.613 109.742C295.663 108.609 294.94 107.359 294.445 105.992C293.951 104.625 293.703 103.134 293.703 101.52ZM307.258 113.668C308.352 113.668 309.484 113.518 310.656 113.219C311.841 112.906 312.889 112.398 313.801 111.695C314.712 110.979 315.422 110.172 315.93 109.273C316.451 108.362 316.867 107.197 317.18 105.777C317.492 104.358 317.648 102.939 317.648 101.52C317.648 99.7487 317.388 97.9974 316.867 96.2656C316.464 94.9505 315.806 93.7786 314.895 92.75C313.983 91.7083 312.883 90.9076 311.594 90.3477C310.305 89.7747 308.931 89.4883 307.473 89.4883C306.288 89.4883 305.129 89.6836 303.996 90.0742C302.863 90.4648 301.932 90.9661 301.203 91.5781C300.474 92.1771 299.797 93.0365 299.172 94.1562C298.547 95.263 298.072 96.487 297.746 97.8281C297.421 99.1693 297.258 100.354 297.258 101.383C297.258 102.464 297.421 103.688 297.746 105.055C298.072 106.422 298.514 107.607 299.074 108.609C299.647 109.612 300.344 110.504 301.164 111.285C301.997 112.053 302.928 112.646 303.957 113.062C304.986 113.466 306.086 113.668 307.258 113.668Z" fill="#F4BCA4"/>
</svg>
